<svg xmlns="http://www.w3.org/2000/svg" viewBox="0 0 512 512" role="img" aria-label="Icône Quiz Anglais">
  <defs>
    <linearGradient id="bg" x1="0" y1="0" x2="1" y2="1">
      <stop offset="0" stop-color="#163b42"/>
      <stop offset="0.55" stop-color="#0f2424"/>
      <stop offset="1" stop-color="#081818"/>
    </linearGradient>
    <linearGradient id="blue" x1="0" y1="0" x2="1" y2="1">
      <stop offset="0" stop-color="#45c7ff"/>
      <stop offset="1" stop-color="#006df0"/>
    </linearGradient>
    <linearGradient id="green" x1="0" y1="0" x2="1" y2="1">
      <stop offset="0" stop-color="#b9ff25"/>
      <stop offset="1" stop-color="#6fd000"/>
    </linearGradient>
    <filter id="shadow" x="-25%" y="-25%" width="150%" height="150%">
      <feDropShadow dx="0" dy="12" stdDeviation="14" flood-color="#000" flood-opacity="0.35"/>
    </filter>
  </defs>

  <rect width="512" height="512" rx="108" fill="url(#bg)"/>
  <path d="M96 258a160 160 0 0 1 275-112" fill="none" stroke="#1b5667" stroke-width="24" stroke-linecap="round"/>
  <path d="M256 86a170 170 0 0 1 155 238" fill="none" stroke="url(#green)" stroke-width="24" stroke-linecap="round"/>

  <g filter="url(#shadow)">
    <rect x="190" y="130" width="204" height="214" rx="38" transform="rotate(10 292 237)" fill="url(#blue)"/>
    <text x="274" y="222" font-family="Arial, Helvetica, sans-serif" font-size="64" font-weight="900" fill="#b8edff">EN</text>

    <path d="M104 190h206c28 0 50 22 50 50v76c0 28-22 50-50 50H187l-54 54c-10 10-27 3-27-12v-42h-2c-28 0-50-22-50-50v-76c0-28 22-50 50-50z" fill="#f8fbff"/>

    <path d="M134 275h34l58-48c14-12 36-2 36 17v97c0 19-22 29-36 17l-58-48h-34c-12 0-22-10-22-22v-1c0-12 10-22 22-22z" fill="url(#blue)"/>
    <path d="M292 248c20 22 20 62 0 84" fill="none" stroke="#008eea" stroke-width="20" stroke-linecap="round"/>
    <path d="M323 224c38 43 38 109 0 152" fill="none" stroke="#0077d8" stroke-width="18" stroke-linecap="round" opacity="0.9"/>

    <circle cx="359" cy="334" r="63" fill="url(#green)"/>
    <path d="M329 334l23 23 45-52" fill="none" stroke="#fff" stroke-width="24" stroke-linecap="round" stroke-linejoin="round"/>
  </g>

  <g fill="#a8ff22">
    <rect x="76" y="156" width="42" height="16" rx="8" transform="rotate(15 97 164)"/>
    <rect x="102" y="108" width="42" height="16" rx="8" transform="rotate(45 123 116)"/>
    <rect x="156" y="82" width="16" height="42" rx="8" transform="rotate(-10 164 103)"/>
  </g>
  <g fill="#0d96ff">
    <circle cx="225" cy="423" r="10"/>
    <circle cx="256" cy="423" r="10"/>
    <circle cx="287" cy="423" r="10"/>
  </g>
</svg>
